<svg xmlns="http://www.w3.org/2000/svg" xmlns:xlink="http://www.w3.org/1999/xlink" width="600" zoomAndPan="magnify" viewBox="0 0 450 449.999984" height="600" preserveAspectRatio="xMidYMid meet" version="1.0"><path fill="#010101" d="M 189.023438 347.5625 L 180.039062 344.355469 C 180.679688 337.9375 180.359375 331.203125 179.394531 324.789062 L 188.058594 320.941406 C 193.515625 318.375 195.757812 311.960938 193.191406 306.828125 L 188.058594 295.925781 C 185.492188 290.472656 179.074219 288.226562 173.941406 290.792969 L 165.277344 294.640625 C 161.109375 289.507812 156.292969 285.019531 150.839844 281.171875 L 154.046875 272.191406 C 155.972656 266.738281 153.085938 260.324219 147.632812 258.398438 L 136.402344 254.230469 C 130.949219 252.304688 124.53125 255.191406 122.605469 260.644531 L 119.398438 269.625 C 112.980469 268.984375 106.242188 269.304688 99.824219 270.265625 L 95.652344 261.285156 C 93.085938 255.832031 86.667969 253.585938 81.535156 256.152344 L 70.628906 261.285156 C 65.171875 263.851562 62.925781 270.265625 65.492188 275.398438 L 69.34375 284.058594 C 64.210938 288.226562 59.71875 293.039062 55.867188 298.488281 L 46.882812 295.28125 C 41.429688 293.359375 35.011719 296.246094 33.085938 301.695312 L 28.917969 312.921875 C 27.953125 315.488281 27.953125 318.375 29.238281 321.261719 C 30.519531 323.828125 32.445312 325.75 35.332031 326.714844 L 44.316406 329.921875 C 43.675781 336.335938 43.996094 343.070312 44.957031 349.484375 L 36.296875 353.335938 C 30.839844 355.898438 28.59375 362.3125 31.164062 367.445312 L 36.296875 378.351562 C 38.863281 383.804688 45.28125 386.046875 50.414062 383.484375 L 59.078125 379.632812 C 63.246094 384.765625 68.058594 389.253906 73.515625 393.105469 L 70.304688 402.085938 C 69.34375 404.652344 69.34375 407.535156 70.628906 410.421875 C 71.910156 412.988281 73.835938 414.914062 76.722656 415.875 L 87.953125 420.046875 C 90.519531 421.007812 93.40625 421.007812 96.296875 419.726562 C 98.863281 418.441406 100.789062 416.515625 101.75 413.632812 L 104.957031 404.652344 C 111.375 405.292969 118.113281 404.972656 124.53125 404.007812 L 128.378906 412.667969 C 130.949219 418.121094 137.363281 420.367188 142.5 417.800781 L 153.40625 412.667969 C 158.863281 410.101562 161.109375 403.6875 158.539062 398.558594 L 154.691406 389.898438 C 159.824219 385.726562 164.316406 380.917969 168.167969 375.464844 L 177.148438 378.671875 C 179.71875 379.632812 182.925781 379.632812 185.492188 378.351562 C 188.058594 377.066406 189.984375 375.144531 190.945312 372.257812 L 195.117188 361.03125 C 197.363281 355.898438 194.476562 349.804688 189.023438 347.5625 Z M 129.984375 375.785156 C 124.210938 378.351562 118.433594 379.632812 112.339844 379.632812 C 95.652344 379.632812 80.574219 370.011719 73.835938 354.9375 C 63.890625 333.769531 73.515625 308.433594 94.691406 298.488281 C 100.464844 295.925781 106.242188 294.640625 112.339844 294.640625 C 129.023438 294.640625 144.101562 304.261719 150.839844 319.335938 C 160.464844 340.824219 151.160156 365.84375 129.984375 375.785156 Z M 129.984375 375.785156 " fill-opacity="1" fill-rule="nonzero"/><path fill="#010101" d="M 407.84375 189.441406 L 392.761719 183.988281 C 394.046875 173.085938 393.40625 161.859375 391.480469 150.953125 L 405.917969 144.21875 C 414.902344 140.050781 419.074219 129.464844 414.902344 120.164062 L 406.558594 101.882812 C 402.390625 92.902344 391.800781 88.734375 382.496094 92.902344 L 368.058594 99.636719 C 361 90.980469 352.65625 83.28125 343.671875 77.1875 L 349.128906 62.113281 C 352.65625 52.8125 347.84375 42.226562 338.539062 39.019531 L 319.609375 31.964844 C 310.625 28.757812 299.714844 33.570312 296.507812 42.550781 L 291.054688 57.625 C 280.144531 56.339844 268.914062 56.980469 258.003906 58.90625 L 251.265625 44.472656 C 247.097656 35.492188 236.507812 31.324219 227.203125 35.492188 L 208.914062 43.832031 C 199.929688 48 195.757812 58.585938 199.929688 67.886719 L 206.667969 82.320312 C 198.003906 89.375 190.304688 97.714844 184.210938 106.695312 L 169.128906 101.242188 C 160.144531 98.035156 149.234375 102.847656 146.027344 111.824219 L 138.96875 130.75 C 137.363281 135.238281 137.363281 140.050781 139.609375 144.539062 C 141.535156 149.03125 145.386719 152.238281 149.878906 153.839844 L 164.957031 159.292969 C 163.675781 170.199219 163.996094 181.425781 166.242188 192.328125 L 151.804688 199.0625 C 142.820312 203.234375 138.648438 213.816406 142.820312 223.117188 L 151.160156 241.398438 C 155.332031 250.378906 165.921875 254.550781 175.226562 250.378906 L 189.664062 243.644531 C 196.722656 252.304688 205.0625 260.003906 214.046875 266.097656 L 208.59375 281.171875 C 206.988281 285.660156 206.988281 290.472656 209.234375 294.960938 C 211.160156 299.453125 215.011719 302.660156 219.503906 304.261719 L 238.433594 311.320312 C 242.925781 312.921875 247.738281 312.921875 252.230469 310.675781 C 256.722656 308.753906 259.929688 304.902344 261.535156 300.414062 L 266.988281 285.339844 C 277.898438 286.621094 289.128906 286.300781 300.035156 284.058594 L 306.773438 298.488281 C 310.945312 307.46875 321.535156 311.640625 330.839844 307.46875 L 349.128906 299.132812 C 358.109375 294.960938 362.28125 284.378906 358.109375 275.078125 L 351.375 260.644531 C 360.035156 253.585938 367.738281 245.25 373.832031 236.269531 L 388.914062 241.722656 C 393.40625 243.324219 398.21875 243.324219 402.710938 241.078125 C 407.203125 239.15625 410.410156 235.304688 412.015625 230.816406 L 419.074219 211.894531 C 421.960938 203.234375 417.148438 192.96875 407.84375 189.441406 Z M 308.699219 236.589844 C 299.394531 241.078125 289.128906 243.003906 278.859375 243.003906 C 250.945312 243.003906 225.597656 226.648438 214.046875 201.628906 C 197.363281 166.027344 213.085938 123.371094 248.699219 107.015625 C 258.003906 102.523438 268.273438 100.601562 278.539062 100.601562 C 306.453125 100.601562 331.800781 116.957031 343.351562 141.972656 C 360.035156 177.574219 344.316406 220.230469 308.699219 236.589844 Z M 308.699219 236.589844 " fill-opacity="1" fill-rule="nonzero"/></svg>